 http://img94.imageshack.us/img94/7499/crsposterhepnxqe.jpg

Country.......: USA, Ukraine
Genre.........: Action, Fantasy, Sci-Fi
Date release..: 31.05.2011 [World]
Director......: Patrick Durham
Writers.......: Jonathan Sachar, Patrick Durham
Duration......: 105 min.
More..........: http://www.imdb.com/title/tt1046245
Trailer.......: http://www.imdb.com/video/imdb/vi433167641
Trailer.......:

Pilot :
Given incredible power by an ancient Celtic Cross. Callan continues to fight evil... Now, joined by a team of weapons experts, Callan battles an unstoppable empire in Los Angeles. 

Cats :
Michael Clarke Duncan   	 ...  	Erlik
Brian Austin Green 	... 	Callan
C. Thomas Howell 	... 	Jake
Tom Sizemore 	... 	Detective Nitti
Vinnie Jones 	... 	Gunnar
Rachel Miner 	... 	Poison
Robert Carradine 	... 	Greek
Jake Busey 	... 	Backfire
William Zabka 	... 	Saw
Susie Abromeit 	... 	Sunshine
Lori Heuring 	... 	Lucia
Samantha Mumba 	... 	Ishka
Bart Johnson 	... 	Landon
Katrina Begin 	... 	Zip
Patrick Durham 	... 	War 

Data Technical :
!!! SAMPLE !!!
Audio.....: English
Subtitles.: English .srt, Spanish .srt, Dutch .srt, Bulgarian .srt
Format                           : AVI
Format/Info                      : Audio Video Interleave
File size                        : 700 MiB
Duration                         : 1h 44mn
Overall bit rate                 : 933 Kbps
Writing application              : VirtualDubMod 1.5.4.1 (build 2178/release)
Writing library                  : VirtualDubMod build 2178/release
Video
ID                               : 0
Format                           : MPEG-4 Visual
Format profile                   : Advanced Simple@L5
Format settings, BVOP            : Yes
Format settings, QPel            : No
Format settings, GMC             : No warppoints
Format settings, Matrix          : Custom
Codec ID                         : XVID
Codec ID/Hint                    : XviD
Duration                         : 1h 44mn
Bit rate                         : 804 Kbps
Width                            : 640 pixels
Height                           : 368 pixels
Display aspect ratio             : 16:9
Frame rate                       : 23.976 fps
Color space                      : YUV
Chroma subsampling               : 4:2:0
Bit depth                        : 8 bits
Scan type                        : Progressive
Bits/(Pixel*Frame)               : 0.142
Stream size                      : 604 MiB (86%)
Writing library                  : XviD 58
Audio
ID                               : 1
Format                           : MPEG Audio
Format version                   : Version 1
Format profile                   : Layer 3
Mode                             : Joint stereo
Mode extension                   : MS Stereo
Codec ID                         : 55
Codec ID/Hint                    : MP3
Duration                         : 1h 44mn
Bit rate mode                    : Variable
Bit rate                         : 116 Kbps
Nominal bit rate                 : 128 Kbps
Channel(s)                       : 2 channels
Sampling rate                    : 48.0 KHz
Stream size                      : 87.0 MiB (12%)
Alignment                        : Aligned on interleaves
Interleave, duration             : 24 ms (0.58 video frame)
Interleave, preload duration     : 159 ms
Writing library                  : LAME3.98r
Encoding settings                : -m j -V 4 -q 2 -lowpass 17 --abr 128

Screen : 
http://img684.imageshack.us/img684/7626/cross2011s1.jpg 
http://img687.imageshack.us/img687/8093/cross2011s2.jpg 
http://img714.imageshack.us/img714/3440/cross2011s3.jpg 
http://img16.imageshack.us/img16/566/cross2011s4.jpg 
http://img710.imageshack.us/img710/6461/cross2011s5.jpg